#!OML:ASF I:\Actors\actors\Patient Classification 1\Patient 1\Session 1\Subject1.ASF
:FULLY-SPECIFIED
:DEGREES
903
root 0.846157 17.471 8.87833 6.33071 3.76887 -8.97651
lowerback -0.247264 1.55029 7.3892
upperback -7.92428 2.50415 1.34049
thorax -7.97784 0.791816 -2.87016
lowerneck -11.9066 -5.82941 -3.52617
upperneck 23.1765 -9.19704 7.01591
head 9.80293 -3.83269 1.90583
rclavicle 8.94531e-015 2.98177e-014
rhumerus -63.5292 -45.4818 -37.9586
rradius 16.9658
rwrist 48.8415
rhand 13.9155 -32.1732
rfingers 7.12502
rthumb 38.8298 -417.742
lclavicle 8.94531e-015 2.98177e-014
lhumerus 98.6759 124.287 191.518
lradius 15.6595
lwrist -49.8441
lhand -16.6095 -11.5845
lfingers 7.12502
lthumb 9.61211 18.1763
rfemur -0.633402 22.3896 27.4515
rtibia 4.76443
rfoot -14.6789 -24.3693
rtoes 3.73836
lfemur 5.45769 -39.2898 -10.7818
ltibia -3.44753
lfoot -12.3327 43.1857
ltoes -2.34898
904
root 0.850733 17.4699 8.87879 6.39991 3.6287 -8.96901
lowerback -0.204077 1.60877 7.5539
upperback -8.04616 2.59478 1.24328
thorax -8.12049 0.81304 -3.07241
lowerneck -11.8047 -5.79632 -3.4885
upperneck 23.4567 -9.15882 6.91656
head 9.87362 -3.81812 1.8735
rclavicle 9.54166e-015 -1.35174e-014
rhumerus -63.4831 -45.6392 -38.1121
rradius 16.9671
rwrist 48.8611
rhand 13.8297 -31.9864
rfingers 7.12502
rthumb 38.7489 -417.578
lclavicle 9.54166e-015 -1.35174e-014
lhumerus 97.5849 124.055 189.997
lradius 15.6582
lwrist -50.7924
lhand -16.5009 -11.6997
lfingers 7.12502
lthumb 9.71688 18.0562
rfemur -0.726541 22.4803 27.3891
rtibia 4.78803
rfoot -14.6428 -24.3105
rtoes 3.59856
lfemur 5.55888 -39.5869 -10.8862
ltibia -3.54887
lfoot -12.5657 43.6093
ltoes -1.9532
905
root 0.857315 17.4687 8.87943 6.49348 3.44582 -8.91202
lowerback -0.2483 1.64858 7.62803
upperback -8.11783 2.64758 1.19073
thorax -8.16405 0.828353 -3.17156
lowerneck -11.6803 -5.73866 -3.51393
upperneck 23.6406 -9.08065 6.88382
head 9.91 -3.78648 1.88042
rclavicle 2.00773e-014 3.61788e-014
rhumerus -63.1066 -45.6659 -38.5939
rradius 17.0333
rwrist 48.6501
rhand 13.7833 -31.9176
rfingers 7.12502
rthumb 38.7052 -417.521
lclavicle 2.00773e-014 3.61788e-014
lhumerus 97.3656 123.964 189.68
lradius 15.7207
lwrist -50.9396
lhand -16.4519 -11.5631
lfingers 7.12502
lthumb 9.76421 18.1906
rfemur -0.87301 22.4363 27.2346
rtibia 4.8348
rfoot -14.5332 -24.1394
rtoes 3.14952
lfemur 5.62317 -39.7386 -11.0391
ltibia -3.6123
lfoot -12.6715 43.9225
ltoes -1.82026
906
root 0.863425 17.4682 8.88244 6.53887 3.27999 -8.81474
lowerback -0.313919 1.66915 7.62328
upperback -8.14216 2.66737 1.15878
thorax -8.14881 0.837077 -3.20185
lowerneck -11.5445 -5.65659 -3.38083
upperneck 23.8002 -8.94429 6.6372
head 9.91308 -3.73835 1.79445
rclavicle -2.5842e-014 -2.50469e-014
rhumerus -62.6436 -45.6702 -39.1106
rradius 17.0925
rwrist 48.4668
rhand 13.8262 -31.8617
rfingers 7.12502
rthumb 38.7457 -417.454
lclavicle -2.5842e-014 -2.50469e-014
lhumerus 97.8824 124.02 190.337
lradius 15.8241
lwrist -50.4666
lhand -16.5304 -11.5042
lfingers 7.12502
lthumb 9.68843 18.253
rfemur -0.931246 22.3446 27.0641
rtibia 4.85824
rfoot -14.4333 -23.9493
rtoes 2.75826
lfemur 5.75649 -39.8919 -11.2998
ltibia -3.64624
lfoot -12.8024 44.2126
ltoes -1.68066
907
root 0.868297 17.4679 8.88462 6.57729 3.13972 -8.77374
lowerback -0.369686 1.68769 7.65413
upperback -8.16008 2.68859 1.15574
thorax -8.13271 0.845417 -3.22156
lowerneck -11.4641 -5.57923 -3.18312
upperneck 23.9759 -8.79882 6.27715
head 9.92377 -3.69085 1.65772
rclavicle -2.24627e-014 1.59028e-015
rhumerus -62.3117 -45.7788 -39.3819
rradius 17.0897
rwrist 48.4704
rhand 13.8322 -31.8484
rfingers 7.12502
rthumb 38.7513 -417.439
lclavicle -2.24627e-014 1.59028e-015
lhumerus 99.1343 124.23 191.842
lradius 15.7996
lwrist -49.5283
lhand -16.6027 -11.597
lfingers 7.12502
lthumb 9.61871 18.1634
rfemur -0.958265 22.4052 26.9836
rtibia 4.85223
rfoot -14.4147 -23.879
rtoes 2.71784
lfemur 5.87098 -40.0725 -11.4775
ltibia -3.66646
lfoot -13.0879 44.506
ltoes -1.28739
908
root 0.872576 17.4682 8.88496 6.61796 3.01287 -8.7612
lowerback -0.486344 1.64962 7.5364
upperback -8.11428 2.62704 1.29356
thorax -8.02932 0.833981 -3.00227
lowerneck -11.5427 -5.46196 -3.07014
upperneck 24.1202 -8.57853 5.93873
head 9.95562 -3.61081 1.54743
rclavicle 0 8.34896e-015
rhumerus -61.8664 -46.0076 -39.454
rradius 16.9901
rwrist 48.7427
rhand 13.7729 -31.76
rfingers 7.12502
rthumb 38.6954 -417.367
lclavicle 0 8.34896e-015
lhumerus 100.593 124.438 193.804
lradius 15.7619
lwrist -48.1603
lhand -16.7272 -11.5442
lfingers 7.12502
lthumb 9.49861 18.2217
rfemur -0.990099 22.5488 26.9458
rtibia 4.84375
rfoot -14.422 -23.897
rtoes 2.66891
lfemur 5.9143 -40.1237 -11.5535
ltibia -3.67418
lfoot -13.1547 44.6565
ltoes -1.15721
909
root 0.875756 17.4688 8.8851 6.60831 2.90474 -8.80234
lowerback -0.14546 1.71731 7.7947
upperback -8.34104 2.76886 1.16611
thorax -8.45397 0.858051 -3.30405
lowerneck -11.3123 -5.45974 -2.98381
upperneck 24.3258 -8.60987 5.92456
head 9.9822 -3.61988 1.53061
rclavicle -7.65321e-015 -2.22639e-014
rhumerus -62.2421 -45.9579 -39.3294
rradius 17.0511
rwrist 48.659
rhand 13.7161 -31.5053
rfingers 7.12502
rthumb 38.6418 -417.127
lclavicle -7.65321e-015 -2.22639e-014
lhumerus 101.321 124.879 194.519
lradius 15.8253
lwrist -47.7133
lhand -16.8077 -11.453
lfingers 7.12502
lthumb 9.42089 18.3164
rfemur -0.988849 22.6071 26.9865
rtibia 4.86549
rfoot -14.3837 -23.8693
rtoes 2.48168
lfemur 5.97226 -40.0409 -11.5455
ltibia -3.6948
lfoot -13.0909 44.6741
ltoes -1.25034
910
root 0.878316 17.4685 8.8851 6.59453 2.81989 -8.9027
lowerback -0.399264 1.71964 7.82975
upperback -8.14386 2.74228 1.27715
thorax -8.09343 0.866332 -3.19191
lowerneck -11.3832 -5.39251 -2.96265
upperneck 24.2517 -8.50536 5.90221
head 9.96149 -3.57189 1.53079
rclavicle 2.26118e-014 4.09496e-014
rhumerus -61.7062 -46.2943 -39.6112
rradius 17.0272
rwrist 48.8172
rhand 13.6517 -31.2867
rfingers 7.12502
rthumb 38.581 -416.925
lclavicle 2.26118e-014 4.09496e-014
lhumerus 100.301 124.263 193.369
lradius 15.8704
lwrist -48.2539
lhand -16.7281 -11.4664
lfingers 7.12502
lthumb 9.49771 18.2996
rfemur -1.00166 22.637 27.0915
rtibia 4.90555
rfoot -14.3522 -23.8138
rtoes 2.42144
lfemur 6.01573 -40.003 -11.4553
ltibia -3.70369
lfoot -13.3314 44.7046
ltoes -0.937269
911
root 0.880511 17.4677 8.88509 6.60459 2.75874 -8.98109
lowerback -0.355035 1.75415 7.9603
upperback -8.1921 2.80204 1.28125
thorax -8.16341 0.882845 -3.26548
lowerneck -11.3214 -5.38284 -2.92412
upperneck 24.4353 -8.52344 5.93407
head 10.0165 -3.57013 1.53495
rclavicle -5.46658e-016 7.15625e-015
rhumerus -61.7267 -46.4072 -39.5785
rradius 17.0638
rwrist 48.9199
rhand 13.6823 -31.306
rfingers 7.12502
rthumb 38.6099 -416.937
lclavicle -5.46658e-016 7.15625e-015
lhumerus 100.391 124.288 193.379
lradius 15.7751
lwrist -48.1857
lhand -16.6456 -11.4088
lfingers 7.12502
lthumb 9.5773 18.3535
rfemur -1.03477 22.6856 27.1707
rtibia 4.94821
rfoot -14.3588 -23.792
rtoes 2.39472
lfemur 5.9712 -39.8942 -11.339
ltibia -3.6586
lfoot -13.6333 44.6321
ltoes -0.464814
912
root 0.882604 17.4675 8.88599 6.61148 2.70583 -8.99441
lowerback -0.116177 1.79545 8.12552
upperback -8.37804 2.89601 1.19209
thorax -8.49153 0.895263 -3.46898
lowerneck -11.3801 -5.42933 -3.09203
upperneck 25.0622 -8.6553 6.12897
head 10.28 -3.6078 1.61287
rclavicle 4.96962e-015 2.74323e-014
rhumerus -62.1067 -46.3924 -39.3454
rradius 17.1184
rwrist 49.0197
rhand 13.7427 -31.401
rfingers 7.12502
rthumb 38.6669 -417.016
lclavicle 4.96962e-015 2.74323e-014
lhumerus 101.031 124.695 193.991
lradius 15.7416
lwrist -47.8314
lhand -16.6313 -11.1723
lfingers 7.12502
lthumb 9.5911 18.5894
rfemur -1.04895 22.7313 27.1794
rtibia 4.96872
rfoot -14.3589 -23.793
rtoes 2.27265
lfemur 5.91345 -39.7165 -11.2948
ltibia -3.60363
lfoot -13.6215 44.5163
ltoes -0.522208
913
root 0.884878 17.4677 8.88839 6.60649 2.67233 -8.96798
lowerback 0.0366776 1.81572 8.186
upperback -8.49022 2.9458 1.13612
thorax -8.69675 0.901231 -3.57291
lowerneck -11.3393 -5.46078 -3.01486
upperneck 25.3516 -8.69845 5.96951
head 10.3683 -3.63255 1.53962
rclavicle -4.96962e-015 2.78299e-014
rhumerus -62.3624 -46.4172 -39.1598
rradius 17.1516
rwrist 48.9975
rhand 13.7454 -31.4511
rfingers 7.12502
rthumb 38.6694 -417.065
lclavicle -4.96962e-015 2.78299e-014
lhumerus 101.13 124.911 194.107
lradius 15.8849
lwrist -47.8393
lhand -16.5506 -10.9363
lfingers 7.12502
lthumb 9.66894 18.8218
rfemur -1.02307 22.7419 27.1443
rtibia 4.94008
rfoot -14.3571 -23.7815
rtoes 2.1974
lfemur 5.85335 -39.4449 -11.2794
ltibia -3.56667
lfoot -13.4199 44.3098
ltoes -0.933283
